PathFileType	4	(X/Y/Z)	Run_300 02
DataRate	CameraRate	NumFrames	NumMarkers	Units	OrigDataRate	OrigDataStartFrame	OrigNumFrames
100	100	5	42	mm	100	59	128
Frame#	Time	RASI			LPSI			RPSI			RTH1			RTH2			RTH3			LTH1			LTH2			LTH3			RTB1			RTB2			RTB3			LTB1			LTB2			LTB3			RCAL			RTOE			RMT5			LCAL			LTOE			LMT5			LACR			RACR			CLAV			C7			RUA1			RUA2			RUA3			RLEL			RMEL			LUA1			LUA2			LUA3			LLEL			LMEL			RFAsuperior			RFAradius			RFAulna			LFAsuperior			LFAradius			LFAulna			LASI			
		X1	Y1	Z1	X2	Y2	Z2	X3	Y3	Z3	X4	Y4	Z4	X5	Y5	Z5	X6	Y6	Z6	X7	Y7	Z7	X8	Y8	Z8	X9	Y9	Z9	X10	Y10	Z10	X11	Y11	Z11	X12	Y12	Z12	X13	Y13	Z13	X14	Y14	Z14	X15	Y15	Z15	X16	Y16	Z16	X17	Y17	Z17	X18	Y18	Z18	X19	Y19	Z19	X20	Y20	Z20	X21	Y21	Z21	X22	Y22	Z22	X23	Y23	Z23	X24	Y24	Z24	X25	Y25	Z25	X26	Y26	Z26	X27	Y27	Z27	X28	Y28	Z28	X29	Y29	Z29	X30	Y30	Z30	X31	Y31	Z31	X32	Y32	Z32	X33	Y33	Z33	X34	Y34	Z34	X35	Y35	Z35	X36	Y36	Z36	X37	Y37	Z37	X38	Y38	Z38	X39	Y39	Z39	X40	Y40	Z40	X41	Y41	Z41	X42	Y42	Z42	

55	1.06	1009.078048	1033.493124	-227.075745	859.339074	1099.885803	-415.226422	851.67356	1092.899663	-302.026757	950.210639	919.924156	-178.567691	958.08892	771.543516	-195.115966	1069.410964	652.853145	-187.827628	954.361615	903.239517	-526.5418100000001	866.019302	756.251682	-483.130374	907.953918	619.230721	-468.051977	1052.41792	434.275902	-245.986294	963.919798	474.581641	-184.129835	887.368749	344.208553	-256.417162	903.598159	391.136536	-387.315888	781.15547	327.78799	-438.015951	776.585062	212.842341	-370.744555	706.468065	358.414126	-257.867934	850.880406	162.480114	-266.502993	796.350328	185.243356	-175.972562	595.243707	138.058417	-346.669749	822.405097	70.582533	-328.108313	767.538665	39.218848	-424.055531	988.75899	1516.739749	-523.989774	986.666696	1510.76293	-196.076819	1053.274611	1478.42374	-324.600197	931.9778710000001	1541.693901	-367.422318	858.279477	1437.659757	-146.113092	884.594382	1377.669188	-102.337805	797.239706	1324.725055	-67.56561600000001	748.514345	1279.948772	-40.545784	745.746606	1248.739953	-124.347137	896.871583	1411.284667	-576.2269669999999	928.876803	1334.599784	-597.30135	861.186001	1264.695676	-619.421841	846.199196	1199.577562	-638.283712	830.817588	1180.501232	-548.925627	817.008058	1193.02912	-32.08049	947.921504	1092.323255	-111.822904	907.402072	1063.769609	-63.601703	917.830166	1154.535289	-631.194788	1084.747283	1174.150303	-543.651083	1082.509339	1108.520775	-572.180443	1016.641736	1028.924302	-468.511406	
56	1.07	1010.070834	1041.320525	-226.293564	863.319229	1106.777622	-416.614421	853.720331	1101.055391	-303.263942	951.84064	929.517592	-176.733241	962.167105	780.766649	-194.236618	1075.847455	664.740761	-187.164965	955.242451	908.476635	-525.34238	858.328091	766.068835	-482.734791	893.820645	627.110065	-468.260025	1069.161605	440.617083	-244.688379	976.85619	475.061273	-185.314619	911.1384399999999	337.436891	-256.328843	881.490919	398.355688	-389.143103	758.5126279999999	336.871984	-440.099808	753.41626	221.195908	-373.220251	730.124509	336.624162	-260.827755	891.558328	154.363569	-265.916064	833.68096	172.669878	-176.532879	572.543194	151.187936	-350.0242	794.125165	69.241927	-328.466797	738.036669	40.115343	-424.258403	991.061431	1525.438942	-522.225665	983.987606	1518.671294	-195.018781	1052.405242	1486.783993	-322.146251	932.005453	1549.126156	-366.687718	854.021414	1448.052529	-148.547472	878.543311	1387.92756	-102.962182	789.610248	1336.555822	-69.99706999999999	739.257581	1292.68175	-44.096578	738.392834	1261.530329	-128.584036	900.251233	1420.329523	-576.4598	933.0057870000001	1343.891433	-597.361853	865.966308	1273.991094	-621.148548	850.907721	1208.999084	-640.207931	833.814045	1189.987881	-550.635358	807.4913	1206.189141	-34.512389	940.7579899999999	1107.04345	-111.825071	899.596322	1077.703568	-64.53577799999999	923.429737	1166.63168	-631.203978	1087.507565	1193.096248	-540.731341	1088.372726	1127.072181	-568.6440679999999	1020.822493	1035.358528	-468.672568	
57	1.08	1011.189405	1049.484967	-225.360854	867.704403	1113.592605	-418.092281	855.877919	1109.191321	-304.413195	952.899467	939.1079130000001	-174.550099	965.677291	790.047822	-192.91964	1080.922897	676.084548	-186.740986	956.16875	914.036983	-524.156797	851.622751	776.343646	-482.662292	880.913871	635.865587	-469.268705	1084.776985	446.712731	-244.055307	989.089667	474.236709	-186.634747	935.636555	330.656229	-256.422927	861.134276	406.583964	-392.119176	737.408219	347.026599	-442.713555	731.895123	230.547527	-376.378363	755.651197	314.066743	-264.50493	932.878921	147.087383	-265.524315	871.988242	160.656367	-177.253525	551.992659	165.820713	-353.516806	766.271114	67.877816	-329.168098	708.779958	41.279915	-424.325114	993.210777	1534.313662	-520.379996	981.952218	1526.533091	-194.004528	1051.688966	1495.129172	-319.758716	931.996816	1556.555386	-365.753032	850.60654	1458.49943	-150.65497	873.3432769999999	1398.048765	-103.804539	782.792112	1348.484737	-72.75922300000001	730.963598	1305.376591	-47.919982	731.9133419999999	1274.190775	-133.036597	903.55567	1429.704834	-576.736185	936.9178450000001	1353.47572	-597.44576	870.12325	1283.814315	-622.843004	855.21461	1218.795077	-642.302566	836.5913430000001	1199.588616	-552.6420900000001	798.856857	1219.033719	-37.2704	934.375638	1121.279223	-111.995249	892.4849809999999	1091.177439	-65.849574	928.5533830000001	1178.828897	-631.339877	1089.599166	1211.751315	-537.831355	1093.367463	1145.508757	-565.351301	1025.39644	1041.689014	-468.889	
58	1.09	1012.359785	1057.89043	-224.229015	872.13096	1120.196622	-419.462259	858.154193	1117.128475	-305.435433	953.452685	948.43353	-172.285773	968.634411	799.108343	-191.343522	1084.471582	686.503314	-186.702355	957.205995	919.754089	-523.03889	846.073342	786.560305	-482.954531	869.289592	645.080725	-470.97936	1099.30589	452.40802	-243.968161	1000.748392	472.01817	-188.080028	960.8375600000001	323.861353	-257.112474	842.500901	415.520956	-396.12482	717.859003	357.908424	-445.828196	712.227451	240.510319	-380.264759	783.029007	291.147665	-268.639125	974.631128	140.829507	-265.547494	911.203893	149.389871	-178.213703	533.602613	181.482701	-357.139318	738.829585	66.97642500000001	-330.041817	679.865931	43.000075	-424.450991	995.27491	1543.083177	-518.519633	980.399528	1534.2141	-193.096516	1051.202601	1503.216538	-317.599541	932.060597	1563.793614	-364.74194	847.852235	1468.780092	-152.340874	868.909699	1407.865557	-104.780673	776.831217	1360.295593	-75.70403399999999	723.688367	1317.689142	-52.021968	726.32393	1286.472078	-137.466129	906.654545	1439.175048	-576.936858	940.503518	1363.179513	-597.666446	873.687689	1293.951327	-624.623152	859.128539	1228.701311	-644.436322	839.295744	1208.982415	-554.977773	791.214472	1231.366682	-40.260234	928.799963	1134.762894	-112.297245	886.0726529999999	1103.871364	-67.56433699999999	933.316782	1191.068997	-631.680664	1091.004851	1229.736617	-534.919389	1097.572339	1163.411239	-562.102519	1030.003335	1047.79518	-468.979293	
59	1.1	1013.587738	1066.240839	-222.869169	876.2310629999999	1126.508443	-420.455214	860.542828	1124.7566	-306.259887	953.525977	957.319063	-170.146283	971.062402	807.635445	-189.923084	1086.448646	695.65449	-187.112222	958.406222	925.442551	-522.080295	841.631979	796.350021	-483.561742	858.88383	654.387619	-473.02457	1112.671238	457.409606	-244.093739	1011.955129	468.35289	-189.557432	986.3277880000001	317.0361	-258.534648	825.367207	424.842003	-400.641377	699.8471019999999	369.114156	-449.279645	694.394062	250.706249	-384.730355	812.09741	268.24121	-272.894965	1016.563414	135.975107	-266.07022	951.190061	139.093153	-179.546455	517.265328	197.741893	-360.977602	711.833951	66.93087300000001	-331.073821	651.483527	45.618079	-424.930268	997.326159	1551.492226	-516.6850920000001	979.163653	1541.524643	-192.333522	1050.991391	1510.824122	-315.737333	932.306002	1570.680961	-363.767017	845.54635	1478.554351	-153.680623	865.110853	1417.195807	-105.776097	771.693037	1371.624129	-78.628705	717.406249	1329.192309	-56.28007	721.654102	1298.035833	-141.705742	909.4641329999999	1448.477595	-576.932799	943.688655	1372.794427	-598.06669	876.7232320000001	1304.144335	-626.540661	862.702983	1238.470004	-646.560637	841.842627	1218.023568	-557.56202	784.63427	1242.940113	-43.313354	924.109831	1147.316947	-112.71525	880.466578	1115.569065	-69.61826499999999	937.712261	1203.159665	-632.211737	1091.694997	1246.757517	-531.966154	1101.039459	1180.542571	-558.898849	1034.301175	1053.654235	-468.74936	
